{
    "asset" : {
        "generator" : "Khronos glTF Blender I/O v1.7.33",
        "version" : "2.0"
    },
    "scene" : 0,
    "scenes" : [
        {
            "name" : "Scene",
            "nodes" : [
                0
            ]
        }
    ],
    "nodes" : [
        {
            "mesh" : 0,
            "name" : "Jean",
            "scale" : [
                0.30000001192092896,
                0.30000001192092896,
                0.30000001192092896
            ]
        }
    ],
    "materials" : [
        {
            "alphaMode" : "BLEND",
            "doubleSided" : true,
            "name" : "Mat01",
            "pbrMetallicRoughness" : {
                "baseColorTexture" : {
                    "index" : 0
                },
                "metallicFactor" : 0
            }
        },
        {
            "alphaMode" : "BLEND",
            "doubleSided" : true,
            "name" : "Mat02",
            "pbrMetallicRoughness" : {
                "baseColorTexture" : {
                    "index" : 1
                },
                "metallicFactor" : 0
            }
        },
        {
            "alphaMode" : "BLEND",
            "doubleSided" : true,
            "name" : "Mat03",
            "pbrMetallicRoughness" : {
                "baseColorTexture" : {
                    "index" : 2
                },
                "metallicFactor" : 0,
                "roughnessFactor" : 0
            }
        },
        {
            "alphaMode" : "BLEND",
            "doubleSided" : true,
            "name" : "Mat04",
            "pbrMetallicRoughness" : {
                "baseColorTexture" : {
                    "index" : 3
                },
                "metallicFactor" : 0,
                "roughnessFactor" : 0
            }
        },
        {
            "alphaMode" : "BLEND",
            "doubleSided" : true,
            "name" : "Mat05",
            "pbrMetallicRoughness" : {
                "baseColorTexture" : {
                    "index" : 4
                },
                "metallicFactor" : 0,
                "roughnessFactor" : 0
            }
        },
        {
            "alphaMode" : "BLEND",
            "doubleSided" : true,
            "name" : "Mat06",
            "pbrMetallicRoughness" : {
                "baseColorTexture" : {
                    "index" : 5
                },
                "metallicFactor" : 0,
                "roughnessFactor" : 0
            }
        },
        {
            "alphaMode" : "BLEND",
            "doubleSided" : true,
            "name" : "Mat07",
            "pbrMetallicRoughness" : {
                "baseColorTexture" : {
                    "index" : 6
                },
                "metallicFactor" : 0,
                "roughnessFactor" : 0
            }
        },
        {
            "alphaMode" : "BLEND",
            "doubleSided" : true,
            "name" : "Mat08",
            "pbrMetallicRoughness" : {
                "baseColorTexture" : {
                    "index" : 7
                },
                "metallicFactor" : 0,
                "roughnessFactor" : 0
            }
        },
        {
            "alphaMode" : "BLEND",
            "doubleSided" : true,
            "name" : "Mat09",
            "pbrMetallicRoughness" : {
                "baseColorTexture" : {
                    "index" : 8
                },
                "metallicFactor" : 0,
                "roughnessFactor" : 0
            }
        },
        {
            "alphaMode" : "BLEND",
            "name" : "Mat10",
            "pbrMetallicRoughness" : {
                "baseColorTexture" : {
                    "index" : 9
                },
                "metallicFactor" : 0,
                "roughnessFactor" : 0
            }
        }
    ],
    "meshes" : [
        {
            "name" : "Jean",
            "primitives" : [
                {
                    "attributes" : {
                        "POSITION" : 0,
                        "NORMAL" : 1,
                        "TEXCOORD_0" : 2
                    },
                    "indices" : 3,
                    "material" : 0
                },
                {
                    "attributes" : {
                        "POSITION" : 4,
                        "NORMAL" : 5,
                        "TEXCOORD_0" : 6
                    },
                    "indices" : 7,
                    "material" : 1
                },
                {
                    "attributes" : {
                        "POSITION" : 8,
                        "NORMAL" : 9,
                        "TEXCOORD_0" : 10
                    },
                    "indices" : 11,
                    "material" : 2
                },
                {
                    "attributes" : {
                        "POSITION" : 12,
                        "NORMAL" : 13,
                        "TEXCOORD_0" : 14
                    },
                    "indices" : 15,
                    "material" : 3
                },
                {
                    "attributes" : {
                        "POSITION" : 16,
                        "NORMAL" : 17,
                        "TEXCOORD_0" : 18
                    },
                    "indices" : 19,
                    "material" : 4
                },
                {
                    "attributes" : {
                        "POSITION" : 20,
                        "NORMAL" : 21,
                        "TEXCOORD_0" : 22
                    },
                    "indices" : 23,
                    "material" : 5
                },
                {
                    "attributes" : {
                        "POSITION" : 24,
                        "NORMAL" : 25,
                        "TEXCOORD_0" : 26
                    },
                    "indices" : 27,
                    "material" : 6
                },
                {
                    "attributes" : {
                        "POSITION" : 28,
                        "NORMAL" : 29,
                        "TEXCOORD_0" : 30
                    },
                    "indices" : 31,
                    "material" : 7
                },
                {
                    "attributes" : {
                        "POSITION" : 32,
                        "NORMAL" : 33,
                        "TEXCOORD_0" : 34
                    },
                    "indices" : 35,
                    "material" : 8
                },
                {
                    "attributes" : {
                        "POSITION" : 36,
                        "NORMAL" : 37,
                        "TEXCOORD_0" : 38
                    },
                    "indices" : 39,
                    "material" : 9
                }
            ]
        }
    ],
    "textures" : [
        {
            "sampler" : 0,
            "source" : 0
        },
        {
            "sampler" : 0,
            "source" : 0
        },
        {
            "sampler" : 0,
            "source" : 1
        },
        {
            "sampler" : 0,
            "source" : 2
        },
        {
            "sampler" : 0,
            "source" : 2
        },
        {
            "sampler" : 0,
            "source" : 1
        },
        {
            "sampler" : 0,
            "source" : 1
        },
        {
            "sampler" : 0,
            "source" : 1
        },
        {
            "sampler" : 0,
            "source" : 1
        },
        {
            "sampler" : 0,
            "source" : 3
        }
    ],
    "images" : [
        {
            "bufferView" : 4,
            "mimeType" : "image/jpeg",
            "name" : "\u8138"
        },
        {
            "bufferView" : 13,
            "mimeType" : "image/jpeg",
            "name" : "\u8863\u670d"
        },
        {
            "bufferView" : 18,
            "mimeType" : "image/jpeg",
            "name" : "\u5934\u53d1"
        },
        {
            "bufferView" : 43,
            "mimeType" : "image/png",
            "name" : "\u8868\u60c5"
        }
    ],
    "accessors" : [
        {
            "bufferView" : 0,
            "componentType" : 5126,
            "count" : 815,
            "max" : [
                0.7738719582557678,
                18.338571548461914,
                1.4179816246032715
            ],
            "min" : [
                -0.773871123790741,
                17.361547470092773,
                1.0440537929534912
            ],
            "type" : "VEC3"
        },
        {
            "bufferView" : 1,
            "componentType" : 5126,
            "count" : 815,
            "type" : "VEC3"
        },
        {
            "bufferView" : 2,
            "componentType" : 5126,
            "count" : 815,
            "type" : "VEC2"
        },
        {
            "bufferView" : 3,
            "componentType" : 5123,
            "count" : 2796,
            "type" : "SCALAR"
        },
        {
            "bufferView" : 5,
            "componentType" : 5126,
            "count" : 1085,
            "max" : [
                0.9657993912696838,
                19.52305793762207,
                1.6235226392745972
            ],
            "min" : [
                -0.965798556804657,
                17.069543838500977,
                0.10570405423641205
            ],
            "type" : "VEC3"
        },
        {
            "bufferView" : 6,
            "componentType" : 5126,
            "count" : 1085,
            "type" : "VEC3"
        },
        {
            "bufferView" : 7,
            "componentType" : 5126,
            "count" : 1085,
            "type" : "VEC2"
        },
        {
            "bufferView" : 8,
            "componentType" : 5123,
            "count" : 5448,
            "type" : "SCALAR"
        },
        {
            "bufferView" : 9,
            "componentType" : 5126,
            "count" : 697,
            "max" : [
                2.0524723529815674,
                18.428041458129883,
                1.7570208311080933
            ],
            "min" : [
                -2.0524728298187256,
                14.319952964782715,
                -0.41289445757865906
            ],
            "type" : "VEC3"
        },
        {
            "bufferView" : 10,
            "componentType" : 5126,
            "count" : 697,
            "type" : "VEC3"
        },
        {
            "bufferView" : 11,
            "componentType" : 5126,
            "count" : 697,
            "type" : "VEC2"
        },
        {
            "bufferView" : 12,
            "componentType" : 5123,
            "count" : 3150,
            "type" : "SCALAR"
        },
        {
            "bufferView" : 14,
            "componentType" : 5126,
            "count" : 202,
            "max" : [
                0.5837331414222717,
                18.210033416748047,
                1.2196846008300781
            ],
            "min" : [
                -0.5837323665618896,
                17.902297973632812,
                1.135068416595459
            ],
            "type" : "VEC3"
        },
        {
            "bufferView" : 15,
            "componentType" : 5126,
            "count" : 202,
            "type" : "VEC3"
        },
        {
            "bufferView" : 16,
            "componentType" : 5126,
            "count" : 202,
            "type" : "VEC2"
        },
        {
            "bufferView" : 17,
            "componentType" : 5123,
            "count" : 588,
            "type" : "SCALAR"
        },
        {
            "bufferView" : 19,
            "componentType" : 5126,
            "count" : 1853,
            "max" : [
                1.210374355316162,
                20.074735641479492,
                1.7325292825698853
            ],
            "min" : [
                -1.4215750694274902,
                16.06842041015625,
                -1.8675721883773804
            ],
            "type" : "VEC3"
        },
        {
            "bufferView" : 20,
            "componentType" : 5126,
            "count" : 1853,
            "type" : "VEC3"
        },
        {
            "bufferView" : 21,
            "componentType" : 5126,
            "count" : 1853,
            "type" : "VEC2"
        },
        {
            "bufferView" : 22,
            "componentType" : 5123,
            "count" : 7191,
            "type" : "SCALAR"
        },
        {
            "bufferView" : 23,
            "componentType" : 5126,
            "count" : 4039,
            "max" : [
                6.489157199859619,
                17.691944122314453,
                1.9233707189559937
            ],
            "min" : [
                -6.489165306091309,
                5.634791851043701,
                -2.233935594558716
            ],
            "type" : "VEC3"
        },
        {
            "bufferView" : 24,
            "componentType" : 5126,
            "count" : 4039,
            "type" : "VEC3"
        },
        {
            "bufferView" : 25,
            "componentType" : 5126,
            "count" : 4039,
            "type" : "VEC2"
        },
        {
            "bufferView" : 26,
            "componentType" : 5123,
            "count" : 16431,
            "type" : "SCALAR"
        },
        {
            "bufferView" : 27,
            "componentType" : 5126,
            "count" : 1984,
            "max" : [
                1.8969919681549072,
                12.762442588806152,
                1.7791342735290527
            ],
            "min" : [
                -1.6645408868789673,
                10.66445541381836,
                -1.6165307760238647
            ],
            "type" : "VEC3"
        },
        {
            "bufferView" : 28,
            "componentType" : 5126,
            "count" : 1984,
            "type" : "VEC3"
        },
        {
            "bufferView" : 29,
            "componentType" : 5126,
            "count" : 1984,
            "type" : "VEC2"
        },
        {
            "bufferView" : 30,
            "componentType" : 5123,
            "count" : 5445,
            "type" : "SCALAR"
        },
        {
            "bufferView" : 31,
            "componentType" : 5126,
            "count" : 2014,
            "max" : [
                1.7233859300613403,
                12.828374862670898,
                1.5061469078063965
            ],
            "min" : [
                -1.7233860492706299,
                0.6332711577415466,
                -0.6580985188484192
            ],
            "type" : "VEC3"
        },
        {
            "bufferView" : 32,
            "componentType" : 5126,
            "count" : 2014,
            "type" : "VEC3"
        },
        {
            "bufferView" : 33,
            "componentType" : 5126,
            "count" : 2014,
            "type" : "VEC2"
        },
        {
            "bufferView" : 34,
            "componentType" : 5123,
            "count" : 8160,
            "type" : "SCALAR"
        },
        {
            "bufferView" : 35,
            "componentType" : 5126,
            "count" : 1488,
            "max" : [
                3.500053882598877,
                17.716821670532227,
                1.7400867938995361
            ],
            "min" : [
                -3.500066041946411,
                13.580673217773438,
                -1.4299087524414062
            ],
            "type" : "VEC3"
        },
        {
            "bufferView" : 36,
            "componentType" : 5126,
            "count" : 1488,
            "type" : "VEC3"
        },
        {
            "bufferView" : 37,
            "componentType" : 5126,
            "count" : 1488,
            "type" : "VEC2"
        },
        {
            "bufferView" : 38,
            "componentType" : 5123,
            "count" : 5430,
            "type" : "SCALAR"
        },
        {
            "bufferView" : 39,
            "componentType" : 5126,
            "count" : 306,
            "max" : [
                0.5669103860855103,
                18.10996437072754,
                0.5615748763084412
            ],
            "min" : [
                -0.5669103860855103,
                17.583663940429688,
                0.3108304738998413
            ],
            "type" : "VEC3"
        },
        {
            "bufferView" : 40,
            "componentType" : 5126,
            "count" : 306,
            "type" : "VEC3"
        },
        {
            "bufferView" : 41,
            "componentType" : 5126,
            "count" : 306,
            "type" : "VEC2"
        },
        {
            "bufferView" : 42,
            "componentType" : 5123,
            "count" : 1326,
            "type" : "SCALAR"
        }
    ],
    "bufferViews" : [
        {
            "buffer" : 0,
            "byteLength" : 9780,
            "byteOffset" : 0
        },
        {
            "buffer" : 0,
            "byteLength" : 9780,
            "byteOffset" : 9780
        },
        {
            "buffer" : 0,
            "byteLength" : 6520,
            "byteOffset" : 19560
        },
        {
            "buffer" : 0,
            "byteLength" : 5592,
            "byteOffset" : 26080
        },
        {
            "buffer" : 0,
            "byteLength" : 151244,
            "byteOffset" : 31672
        },
        {
            "buffer" : 0,
            "byteLength" : 13020,
            "byteOffset" : 182916
        },
        {
            "buffer" : 0,
            "byteLength" : 13020,
            "byteOffset" : 195936
        },
        {
            "buffer" : 0,
            "byteLength" : 8680,
            "byteOffset" : 208956
        },
        {
            "buffer" : 0,
            "byteLength" : 10896,
            "byteOffset" : 217636
        },
        {
            "buffer" : 0,
            "byteLength" : 8364,
            "byteOffset" : 228532
        },
        {
            "buffer" : 0,
            "byteLength" : 8364,
            "byteOffset" : 236896
        },
        {
            "buffer" : 0,
            "byteLength" : 5576,
            "byteOffset" : 245260
        },
        {
            "buffer" : 0,
            "byteLength" : 6300,
            "byteOffset" : 250836
        },
        {
            "buffer" : 0,
            "byteLength" : 492352,
            "byteOffset" : 257136
        },
        {
            "buffer" : 0,
            "byteLength" : 2424,
            "byteOffset" : 749488
        },
        {
            "buffer" : 0,
            "byteLength" : 2424,
            "byteOffset" : 751912
        },
        {
            "buffer" : 0,
            "byteLength" : 1616,
            "byteOffset" : 754336
        },
        {
            "buffer" : 0,
            "byteLength" : 1176,
            "byteOffset" : 755952
        },
        {
            "buffer" : 0,
            "byteLength" : 247436,
            "byteOffset" : 757128
        },
        {
            "buffer" : 0,
            "byteLength" : 22236,
            "byteOffset" : 1004564
        },
        {
            "buffer" : 0,
            "byteLength" : 22236,
            "byteOffset" : 1026800
        },
        {
            "buffer" : 0,
            "byteLength" : 14824,
            "byteOffset" : 1049036
        },
        {
            "buffer" : 0,
            "byteLength" : 14382,
            "byteOffset" : 1063860
        },
        {
            "buffer" : 0,
            "byteLength" : 48468,
            "byteOffset" : 1078244
        },
        {
            "buffer" : 0,
            "byteLength" : 48468,
            "byteOffset" : 1126712
        },
        {
            "buffer" : 0,
            "byteLength" : 32312,
            "byteOffset" : 1175180
        },
        {
            "buffer" : 0,
            "byteLength" : 32862,
            "byteOffset" : 1207492
        },
        {
            "buffer" : 0,
            "byteLength" : 23808,
            "byteOffset" : 1240356
        },
        {
            "buffer" : 0,
            "byteLength" : 23808,
            "byteOffset" : 1264164
        },
        {
            "buffer" : 0,
            "byteLength" : 15872,
            "byteOffset" : 1287972
        },
        {
            "buffer" : 0,
            "byteLength" : 10890,
            "byteOffset" : 1303844
        },
        {
            "buffer" : 0,
            "byteLength" : 24168,
            "byteOffset" : 1314736
        },
        {
            "buffer" : 0,
            "byteLength" : 24168,
            "byteOffset" : 1338904
        },
        {
            "buffer" : 0,
            "byteLength" : 16112,
            "byteOffset" : 1363072
        },
        {
            "buffer" : 0,
            "byteLength" : 16320,
            "byteOffset" : 1379184
        },
        {
            "buffer" : 0,
            "byteLength" : 17856,
            "byteOffset" : 1395504
        },
        {
            "buffer" : 0,
            "byteLength" : 17856,
            "byteOffset" : 1413360
        },
        {
            "buffer" : 0,
            "byteLength" : 11904,
            "byteOffset" : 1431216
        },
        {
            "buffer" : 0,
            "byteLength" : 10860,
            "byteOffset" : 1443120
        },
        {
            "buffer" : 0,
            "byteLength" : 3672,
            "byteOffset" : 1453980
        },
        {
            "buffer" : 0,
            "byteLength" : 3672,
            "byteOffset" : 1457652
        },
        {
            "buffer" : 0,
            "byteLength" : 2448,
            "byteOffset" : 1461324
        },
        {
            "buffer" : 0,
            "byteLength" : 2652,
            "byteOffset" : 1463772
        },
        {
            "buffer" : 0,
            "byteLength" : 136533,
            "byteOffset" : 1466424
        }
    ],
    "samplers" : [
        {
            "magFilter" : 9729,
            "minFilter" : 9987
        }
    ],
    "buffers" : [
        {
            "byteLength" : 1602960,
            "uri" : "data:application/octet-stream;base64,"
        }
    ]
}
